<?xml version="1.0" encoding="utf-8"?>
<!-- Generator: Adobe Illustrator 23.0.1, SVG Export Plug-In . SVG Version: 6.00 Build 0)  -->
<svg version="1.1" id="Ebene_2" xmlns="http://www.w3.org/2000/svg" xmlns:xlink="http://www.w3.org/1999/xlink" x="0px" y="0px"
	 viewBox="0 0 143 122" style="enable-background:new 0 0 143 122;" xml:space="preserve">
<style type="text/css">
	.st0{fill:url(#SVGID_1_);}
	.st1{fill:#DADCDE;}
	.st2{fill:url(#SVGID_2_);}
	.st3{fill:#59B9E8;}
	.st4{fill:url(#SVGID_3_);}
	.st5{fill:#F7B82C;}
	.st6{fill:#F7B82D;}
	.st7{fill:#F5AE23;}
	.st8{fill:url(#SVGID_4_);}
	.st9{fill:url(#SVGID_5_);}
	.st10{fill:url(#SVGID_6_);}
	.st11{fill:url(#SVGID_7_);}
	.st12{fill:url(#SVGID_8_);}
	.st13{fill:url(#SVGID_9_);}
	.st14{fill:url(#SVGID_10_);}
	.st15{fill:url(#SVGID_11_);}
	.st16{fill:url(#SVGID_12_);}
	.st17{fill:url(#SVGID_13_);}
	.st18{fill:url(#SVGID_14_);}
	.st19{fill:url(#SVGID_15_);}
	.st20{fill:url(#SVGID_16_);}
	.st21{fill:url(#SVGID_17_);}
	.st22{fill:url(#SVGID_18_);}
	.st23{fill:url(#SVGID_19_);}
	.st24{fill:url(#SVGID_20_);}
	.st25{fill:url(#SVGID_21_);}
	.st26{fill:url(#SVGID_22_);}
	.st27{fill:url(#SVGID_23_);}
	.st28{fill:url(#SVGID_24_);}
	.st29{fill:url(#SVGID_25_);}
	.st30{fill:#BEE2F1;}
	.st31{fill:url(#SVGID_26_);}
	.st32{fill:url(#SVGID_27_);}
	.st33{fill:url(#SVGID_28_);}
	.st34{fill:url(#SVGID_29_);}
	.st35{fill:#CBD9E7;}
	.st36{fill:#C3CFDA;}
	.st37{fill:url(#SVGID_30_);}
	.st38{fill:url(#SVGID_31_);}
	.st39{fill:url(#SVGID_32_);}
	.st40{fill:url(#SVGID_33_);}
	.st41{fill:url(#SVGID_34_);}
	.st42{fill:url(#SVGID_35_);}
	.st43{fill:url(#SVGID_36_);}
	.st44{fill:url(#SVGID_37_);}
	.st45{fill:url(#SVGID_38_);}
	.st46{fill:url(#SVGID_39_);}
	.st47{fill:url(#SVGID_40_);}
	.st48{fill:url(#SVGID_41_);}
	.st49{fill:url(#SVGID_42_);}
	.st50{fill:url(#SVGID_43_);}
	.st51{fill:url(#SVGID_44_);}
	.st52{fill:url(#SVGID_45_);}
	.st53{fill:url(#SVGID_46_);}
	.st54{fill:url(#SVGID_47_);}
	.st55{fill:url(#SVGID_48_);}
	.st56{fill:url(#SVGID_49_);}
	.st57{fill:url(#SVGID_50_);}
	.st58{fill:url(#SVGID_51_);}
	.st59{fill:url(#SVGID_52_);}
	.st60{fill:url(#SVGID_53_);}
	.st61{fill:url(#SVGID_54_);}
	.st62{fill:url(#SVGID_55_);}
	.st63{fill:url(#SVGID_56_);}
	.st64{fill:url(#SVGID_57_);}
	.st65{fill:url(#SVGID_58_);}
	.st66{fill:url(#SVGID_59_);}
	.st67{fill:url(#SVGID_60_);}
	.st68{fill:url(#SVGID_61_);}
	.st69{fill:url(#SVGID_62_);}
	.st70{fill:url(#SVGID_63_);}
	.st71{fill:url(#SVGID_64_);}
	.st72{fill:url(#SVGID_65_);}
	.st73{fill:url(#SVGID_66_);}
	.st74{fill:url(#SVGID_67_);}
	.st75{fill:url(#SVGID_68_);}
	.st76{fill:url(#SVGID_69_);}
	.st77{fill:url(#SVGID_70_);}
	.st78{fill:#FFFFFF;}
	.st79{fill:url(#SVGID_71_);}
	.st80{fill:url(#SVGID_72_);}
	.st81{fill:url(#SVGID_73_);}
	.st82{fill:url(#SVGID_74_);}
	.st83{fill:url(#SVGID_75_);}
	.st84{fill:url(#SVGID_76_);}
	.st85{fill:url(#SVGID_77_);}
	.st86{fill:url(#SVGID_78_);}
	.st87{fill:url(#SVGID_79_);}
	.st88{fill:url(#SVGID_80_);}
	.st89{fill:url(#SVGID_81_);}
	.st90{fill:url(#SVGID_82_);}
	.st91{fill:url(#SVGID_83_);}
	.st92{fill:url(#SVGID_84_);}
	.st93{fill:url(#SVGID_85_);}
	.st94{fill:url(#SVGID_86_);}
	.st95{fill:url(#SVGID_87_);}
	.st96{fill:url(#SVGID_88_);}
	.st97{fill:url(#SVGID_89_);}
	.st98{fill:url(#SVGID_90_);}
	.st99{fill:url(#SVGID_91_);}
	.st100{fill:url(#SVGID_92_);}
	.st101{fill:url(#SVGID_93_);}
	.st102{fill:url(#SVGID_94_);}
	.st103{fill:url(#SVGID_95_);}
	.st104{fill:url(#SVGID_96_);}
	.st105{fill:url(#SVGID_97_);}
	.st106{fill:url(#SVGID_98_);}
	.st107{fill:url(#SVGID_99_);}
	.st108{fill:url(#SVGID_100_);}
	.st109{fill:url(#SVGID_101_);}
	.st110{fill:url(#SVGID_102_);}
	.st111{fill:url(#SVGID_103_);}
	.st112{fill:url(#SVGID_104_);}
	.st113{fill:url(#SVGID_105_);}
	.st114{fill:url(#SVGID_106_);}
	.st115{fill:url(#SVGID_107_);}
	.st116{fill:url(#SVGID_108_);}
	.st117{fill:url(#SVGID_109_);}
	.st118{fill:url(#SVGID_110_);}
	.st119{fill:url(#SVGID_111_);}
	.st120{fill:url(#SVGID_112_);}
	.st121{fill:url(#SVGID_113_);}
	.st122{fill:url(#SVGID_114_);}
	.st123{fill:url(#SVGID_115_);}
	.st124{fill:url(#SVGID_116_);}
	.st125{fill:url(#SVGID_117_);}
	.st126{fill:url(#SVGID_118_);}
	.st127{fill:url(#SVGID_119_);}
	.st128{fill:url(#SVGID_120_);}
	.st129{fill:url(#SVGID_121_);}
	.st130{fill:url(#SVGID_122_);}
	.st131{fill:url(#SVGID_123_);}
	.st132{fill:url(#SVGID_124_);}
	.st133{fill:url(#SVGID_125_);}
	.st134{fill:url(#SVGID_126_);}
	.st135{fill:url(#SVGID_127_);}
	.st136{fill:url(#SVGID_128_);}
	.st137{fill:url(#SVGID_129_);}
	.st138{fill:url(#SVGID_130_);}
	.st139{fill:url(#SVGID_131_);}
	.st140{fill:url(#SVGID_132_);}
	.st141{fill:url(#SVGID_133_);}
	.st142{fill:url(#SVGID_134_);}
	.st143{fill:url(#SVGID_135_);}
	.st144{fill:url(#SVGID_136_);}
	.st145{fill:url(#SVGID_137_);}
	.st146{fill:url(#SVGID_138_);}
	.st147{fill:url(#SVGID_139_);}
	.st148{fill:url(#SVGID_140_);}
	.st149{fill:url(#SVGID_141_);}
	.st150{fill:url(#SVGID_142_);}
	.st151{fill:url(#SVGID_143_);}
	.st152{fill:url(#SVGID_144_);}
	.st153{fill:url(#SVGID_145_);}
	.st154{fill:url(#SVGID_146_);}
	.st155{fill:url(#SVGID_147_);}
	.st156{fill:url(#SVGID_148_);}
	.st157{fill:url(#SVGID_149_);}
	.st158{fill:url(#SVGID_150_);}
	.st159{fill:url(#SVGID_151_);}
	.st160{fill:url(#SVGID_152_);}
	.st161{fill:url(#SVGID_153_);}
	.st162{fill:url(#SVGID_154_);}
	.st163{fill:url(#SVGID_155_);}
	.st164{fill:url(#SVGID_156_);}
	.st165{fill:url(#SVGID_157_);}
	.st166{fill:url(#SVGID_158_);}
	.st167{fill:url(#SVGID_159_);}
	.st168{fill:url(#SVGID_160_);}
	.st169{fill:url(#SVGID_161_);}
	.st170{fill:url(#SVGID_162_);}
	.st171{fill:url(#SVGID_163_);}
	.st172{fill:url(#SVGID_164_);}
	.st173{fill:url(#SVGID_165_);}
	.st174{fill:url(#SVGID_166_);}
	.st175{fill:url(#SVGID_167_);}
	.st176{fill:url(#SVGID_168_);}
	.st177{fill:url(#SVGID_169_);}
	.st178{fill:url(#SVGID_170_);}
	.st179{fill:url(#SVGID_171_);}
	.st180{fill:url(#SVGID_172_);}
	.st181{fill:url(#SVGID_173_);}
	.st182{fill:url(#SVGID_174_);}
	.st183{fill:url(#SVGID_175_);}
	.st184{fill:url(#SVGID_176_);}
	.st185{fill:url(#SVGID_177_);}
	.st186{fill:url(#SVGID_178_);}
	.st187{fill:url(#SVGID_179_);}
	.st188{fill:url(#SVGID_180_);}
	.st189{fill:url(#SVGID_181_);}
</style>
<g>
	<g>
		<g>
			
				<radialGradient id="SVGID_1_" cx="71.6745" cy="2977.5088" r="32.1614" gradientTransform="matrix(1 0 0 -1 0 3026.8655)" gradientUnits="userSpaceOnUse">
				<stop  offset="0" style="stop-color:#F9DA52"/>
				<stop  offset="1" style="stop-color:#F7B82C"/>
			</radialGradient>
			<path class="st0" d="M71.359,81.908c-13.487,0-24.333-10.94-24.333-24.333s10.94-24.333,24.333-24.333
				s24.333,10.94,24.333,24.333S84.751,81.908,71.359,81.908z"/>
			<path class="st5" d="M71.359,33.715c13.109,0,23.861,10.657,23.861,23.861c0,13.109-10.657,23.861-23.861,23.861
				S47.497,70.779,47.497,57.576S58.249,33.715,71.359,33.715 M71.359,32.583c-13.77,0-24.898,11.223-24.898,24.898
				c0,13.77,11.223,24.898,24.898,24.898c13.77,0,24.898-11.223,24.898-24.898C96.257,43.806,85.128,32.583,71.359,32.583
				L71.359,32.583z"/>
		</g>
	</g>
	<g>
		<path class="st6" d="M106.348,59.65c-0.943,0-1.603-0.754-1.603-1.603s0.755-1.603,1.603-1.603h11.129
			c0.943,0,1.603,0.754,1.603,1.603s-0.755,1.603-1.603,1.603H106.348z"/>
		<path class="st7" d="M117.572,56.915c0.566,0,1.132,0.472,1.132,1.132c0,0.566-0.472,1.132-1.132,1.132h-11.129
			c-0.566,0-1.132-0.472-1.132-1.132c0-0.566,0.472-1.132,1.132-1.132H117.572 M117.572,55.784h-11.129
			c-1.226,0-2.169,0.943-2.169,2.169c0,1.226,0.943,2.169,2.169,2.169h11.129c1.226,0,2.169-0.943,2.169-2.169
			C119.741,56.821,118.798,55.784,117.572,55.784L117.572,55.784z"/>
	</g>
	<g>
		<path class="st6" d="M25.428,59.65c-0.943,0-1.603-0.754-1.603-1.603s0.755-1.603,1.603-1.603h11.129
			c0.943,0,1.603,0.754,1.603,1.603s-0.755,1.603-1.603,1.603H25.428z"/>
		<path class="st7" d="M36.557,56.915c0.566,0,1.132,0.472,1.132,1.132c0,0.566-0.472,1.132-1.132,1.132H25.428
			c-0.566,0-1.132-0.472-1.132-1.132c0-0.566,0.472-1.132,1.132-1.132H36.557 M36.557,55.784H25.428
			c-1.226,0-2.169,0.943-2.169,2.169c0,1.226,0.943,2.169,2.169,2.169h11.129c1.226,0,2.169-0.943,2.169-2.169
			C38.726,56.821,37.783,55.784,36.557,55.784L36.557,55.784z"/>
	</g>
	<g>
		<path class="st6" d="M96.163,34.941c-0.472,0-0.849-0.189-1.132-0.472c-0.283-0.283-0.472-0.754-0.472-1.132
			c0-0.472,0.189-0.849,0.472-1.132l5.659-5.659c0.283-0.283,0.755-0.472,1.132-0.472c0.472,0,0.849,0.189,1.132,0.472
			c0.283,0.283,0.472,0.754,0.472,1.132c0,0.377-0.189,0.849-0.472,1.132l-5.659,5.659C97.011,34.846,96.634,34.941,96.163,34.941z"
			/>
		<path class="st7" d="M101.821,26.547c0.283,0,0.566,0.094,0.755,0.283c0.189,0.189,0.283,0.472,0.283,0.754
			c0,0.283-0.094,0.566-0.283,0.754l-5.659,5.659c-0.189,0.189-0.472,0.283-0.755,0.283s-0.566-0.094-0.755-0.283
			c-0.189-0.189-0.283-0.472-0.283-0.754c0-0.283,0.094-0.566,0.283-0.754l5.659-5.659
			C101.256,26.641,101.539,26.547,101.821,26.547 M101.821,25.415c-0.566,0-1.132,0.189-1.509,0.66l-5.659,5.659
			c-0.849,0.849-0.849,2.264,0,3.112c0.472,0.472,0.943,0.66,1.509,0.66s1.132-0.189,1.509-0.66l5.659-5.659
			c0.849-0.849,0.849-2.264,0-3.112C102.953,25.698,102.387,25.415,101.821,25.415L101.821,25.415z"/>
	</g>
	<g>
		<path class="st6" d="M41.084,90.019c-0.472,0-0.849-0.189-1.132-0.472c-0.283-0.283-0.472-0.754-0.472-1.132
			c0-0.472,0.189-0.849,0.472-1.132l5.659-5.659c0.283-0.283,0.755-0.472,1.132-0.472c0.472,0,0.849,0.189,1.132,0.472
			c0.283,0.283,0.472,0.754,0.472,1.132s-0.189,0.849-0.472,1.132l-5.659,5.659C41.933,89.925,41.556,90.019,41.084,90.019z"/>
		<path class="st7" d="M46.743,81.625c0.283,0,0.566,0.094,0.755,0.283c0.189,0.189,0.283,0.472,0.283,0.754
			c0,0.283-0.094,0.566-0.283,0.754l-5.659,5.659c-0.189,0.189-0.472,0.283-0.755,0.283s-0.566-0.094-0.755-0.283
			c-0.189-0.189-0.283-0.472-0.283-0.754c0-0.283,0.094-0.566,0.283-0.754l5.659-5.659C46.177,81.72,46.46,81.625,46.743,81.625
			 M46.743,80.494c-0.566,0-1.132,0.189-1.509,0.66l-5.659,5.659c-0.849,0.849-0.849,2.263,0,3.112
			c0.472,0.472,0.943,0.66,1.509,0.66c0.566,0,1.132-0.189,1.509-0.66l5.659-5.659c0.849-0.849,0.849-2.263,0-3.112
			C47.875,80.682,47.309,80.494,46.743,80.494L46.743,80.494z"/>
	</g>
	<g>
		<path class="st6" d="M101.821,90.019c-0.472,0-0.849-0.189-1.132-0.472l-5.659-5.659c-0.66-0.66-0.66-1.698,0-2.358
			c0.283-0.283,0.755-0.472,1.132-0.472c0.472,0,0.849,0.189,1.132,0.472l5.659,5.659c0.283,0.283,0.472,0.754,0.472,1.132
			c0,0.472-0.189,0.849-0.472,1.132C102.67,89.925,102.293,90.019,101.821,90.019z"/>
		<path class="st7" d="M96.163,81.625c0.283,0,0.566,0.094,0.755,0.283l5.659,5.659c0.189,0.189,0.283,0.472,0.283,0.754
			c0,0.283-0.094,0.566-0.283,0.754c-0.189,0.189-0.472,0.283-0.755,0.283s-0.566-0.094-0.755-0.283l-5.659-5.659
			c-0.189-0.189-0.283-0.472-0.283-0.754c0-0.283,0.094-0.566,0.283-0.754C95.597,81.72,95.88,81.625,96.163,81.625 M96.163,80.494
			c-0.566,0-1.132,0.189-1.509,0.66c-0.849,0.849-0.849,2.263,0,3.112l5.659,5.659c0.472,0.472,0.943,0.66,1.509,0.66
			s1.132-0.189,1.509-0.66c0.849-0.849,0.849-2.263,0-3.112l-5.659-5.659C97.294,80.682,96.729,80.494,96.163,80.494L96.163,80.494z
			"/>
	</g>
	<g>
		<path class="st6" d="M46.743,34.941c-0.472,0-0.849-0.189-1.132-0.472l-5.659-5.659c-0.66-0.66-0.66-1.698,0-2.358
			c0.283-0.283,0.755-0.472,1.132-0.472c0.472,0,0.849,0.189,1.132,0.472l5.659,5.659c0.283,0.283,0.472,0.754,0.472,1.132
			c0,0.472-0.189,0.849-0.472,1.132C47.686,34.846,47.215,34.941,46.743,34.941z"/>
		<path class="st7" d="M41.084,26.547c0.283,0,0.566,0.094,0.755,0.283l5.659,5.659c0.189,0.189,0.283,0.472,0.283,0.754
			c0,0.283-0.094,0.566-0.283,0.754c-0.189,0.189-0.472,0.283-0.755,0.283c-0.283,0-0.566-0.094-0.755-0.283l-5.659-5.659
			c-0.189-0.189-0.283-0.472-0.283-0.754c0-0.283,0.094-0.566,0.283-0.754S40.801,26.547,41.084,26.547 M41.084,25.415
			c-0.566,0-1.132,0.189-1.509,0.66c-0.849,0.849-0.849,2.264,0,3.112l5.659,5.659c0.472,0.472,0.943,0.66,1.509,0.66
			c0.566,0,1.132-0.189,1.509-0.66c0.849-0.849,0.849-2.264,0-3.112l-5.659-5.659C42.216,25.698,41.65,25.415,41.084,25.415
			L41.084,25.415z"/>
	</g>
	<g>
		<path class="st6" d="M71.453,105.769c-0.943,0-1.603-0.754-1.603-1.603V93.037c0-0.943,0.755-1.603,1.603-1.603
			c0.943,0,1.603,0.754,1.603,1.603v11.129C73.15,105.015,72.396,105.769,71.453,105.769z"/>
		<path class="st7" d="M71.453,91.811c0.566,0,1.132,0.472,1.132,1.132v11.129c0,0.566-0.472,1.132-1.132,1.132
			c-0.566,0-1.132-0.472-1.132-1.132V92.943C70.415,92.283,70.887,91.811,71.453,91.811 M71.453,90.774
			c-1.226,0-2.169,0.943-2.169,2.169v11.129c0,1.226,0.943,2.169,2.169,2.169c1.226,0,2.169-0.943,2.169-2.169V92.943
			C73.622,91.717,72.679,90.774,71.453,90.774L71.453,90.774z"/>
	</g>
	<g>
		<path class="st6" d="M71.453,24.755c-0.943,0-1.603-0.754-1.603-1.603V12.023c0-0.943,0.755-1.603,1.603-1.603
			c0.943,0,1.603,0.754,1.603,1.603v11.129C73.15,24,72.396,24.755,71.453,24.755z"/>
		<path class="st7" d="M71.453,10.891c0.566,0,1.132,0.472,1.132,1.132v11.129c0,0.566-0.472,1.132-1.132,1.132
			c-0.566,0-1.132-0.472-1.132-1.132V12.023C70.415,11.363,70.887,10.891,71.453,10.891 M71.453,9.759
			c-1.226,0-2.169,0.943-2.169,2.169v11.129c0,1.226,0.943,2.169,2.169,2.169c1.226,0,2.169-0.943,2.169-2.169V11.928
			C73.622,10.702,72.679,9.759,71.453,9.759L71.453,9.759z"/>
	</g>
</g>
</svg>
