<?xml version="1.0" encoding="utf-8"?>
<!-- Generator: Adobe Illustrator 23.0.1, SVG Export Plug-In . SVG Version: 6.00 Build 0)  -->
<svg version="1.1" id="Ebene_2" xmlns="http://www.w3.org/2000/svg" xmlns:xlink="http://www.w3.org/1999/xlink" x="0px" y="0px"
	 viewBox="0 0 143 122" style="enable-background:new 0 0 143 122;" xml:space="preserve">
<style type="text/css">
	.st0{fill:url(#SVGID_1_);}
	.st1{fill:#DADCDE;}
	.st2{fill:url(#SVGID_2_);}
	.st3{fill:#59B9E8;}
	.st4{fill:url(#SVGID_3_);}
	.st5{fill:#F7B82C;}
	.st6{fill:#F7B82D;}
	.st7{fill:#F5AE23;}
	.st8{fill:url(#SVGID_4_);}
	.st9{fill:url(#SVGID_5_);}
	.st10{fill:url(#SVGID_6_);}
	.st11{fill:url(#SVGID_7_);}
	.st12{fill:url(#SVGID_8_);}
	.st13{fill:url(#SVGID_9_);}
	.st14{fill:url(#SVGID_10_);}
	.st15{fill:url(#SVGID_11_);}
	.st16{fill:url(#SVGID_12_);}
	.st17{fill:url(#SVGID_13_);}
	.st18{fill:url(#SVGID_14_);}
	.st19{fill:url(#SVGID_15_);}
	.st20{fill:url(#SVGID_16_);}
	.st21{fill:url(#SVGID_17_);}
	.st22{fill:url(#SVGID_18_);}
	.st23{fill:url(#SVGID_19_);}
	.st24{fill:url(#SVGID_20_);}
	.st25{fill:url(#SVGID_21_);}
	.st26{fill:url(#SVGID_22_);}
	.st27{fill:url(#SVGID_23_);}
	.st28{fill:url(#SVGID_24_);}
	.st29{fill:url(#SVGID_25_);}
	.st30{fill:#BEE2F1;}
	.st31{fill:url(#SVGID_26_);}
	.st32{fill:url(#SVGID_27_);}
	.st33{fill:url(#SVGID_28_);}
	.st34{fill:url(#SVGID_29_);}
	.st35{fill:#CBD9E7;}
	.st36{fill:#C3CFDA;}
	.st37{fill:url(#SVGID_30_);}
	.st38{fill:url(#SVGID_31_);}
	.st39{fill:url(#SVGID_32_);}
	.st40{fill:url(#SVGID_33_);}
	.st41{fill:url(#SVGID_34_);}
	.st42{fill:url(#SVGID_35_);}
	.st43{fill:url(#SVGID_36_);}
	.st44{fill:url(#SVGID_37_);}
	.st45{fill:url(#SVGID_38_);}
	.st46{fill:url(#SVGID_39_);}
	.st47{fill:url(#SVGID_40_);}
	.st48{fill:url(#SVGID_41_);}
	.st49{fill:url(#SVGID_42_);}
	.st50{fill:url(#SVGID_43_);}
	.st51{fill:url(#SVGID_44_);}
	.st52{fill:url(#SVGID_45_);}
	.st53{fill:url(#SVGID_46_);}
	.st54{fill:url(#SVGID_47_);}
	.st55{fill:url(#SVGID_48_);}
	.st56{fill:url(#SVGID_49_);}
	.st57{fill:url(#SVGID_50_);}
	.st58{fill:url(#SVGID_51_);}
	.st59{fill:url(#SVGID_52_);}
	.st60{fill:url(#SVGID_53_);}
	.st61{fill:url(#SVGID_54_);}
	.st62{fill:url(#SVGID_55_);}
	.st63{fill:url(#SVGID_56_);}
	.st64{fill:url(#SVGID_57_);}
	.st65{fill:url(#SVGID_58_);}
	.st66{fill:url(#SVGID_59_);}
	.st67{fill:url(#SVGID_60_);}
	.st68{fill:url(#SVGID_61_);}
	.st69{fill:url(#SVGID_62_);}
	.st70{fill:url(#SVGID_63_);}
	.st71{fill:url(#SVGID_64_);}
	.st72{fill:url(#SVGID_65_);}
	.st73{fill:url(#SVGID_66_);}
	.st74{fill:url(#SVGID_67_);}
	.st75{fill:url(#SVGID_68_);}
	.st76{fill:url(#SVGID_69_);}
	.st77{fill:url(#SVGID_70_);}
	.st78{fill:#FFFFFF;}
	.st79{fill:url(#SVGID_71_);}
	.st80{fill:url(#SVGID_72_);}
	.st81{fill:url(#SVGID_73_);}
	.st82{fill:url(#SVGID_74_);}
	.st83{fill:url(#SVGID_75_);}
	.st84{fill:url(#SVGID_76_);}
	.st85{fill:url(#SVGID_77_);}
	.st86{fill:url(#SVGID_78_);}
	.st87{fill:url(#SVGID_79_);}
	.st88{fill:url(#SVGID_80_);}
	.st89{fill:url(#SVGID_81_);}
	.st90{fill:url(#SVGID_82_);}
	.st91{fill:url(#SVGID_83_);}
	.st92{fill:url(#SVGID_84_);}
	.st93{fill:url(#SVGID_85_);}
	.st94{fill:url(#SVGID_86_);}
	.st95{fill:url(#SVGID_87_);}
	.st96{fill:url(#SVGID_88_);}
	.st97{fill:url(#SVGID_89_);}
	.st98{fill:url(#SVGID_90_);}
	.st99{fill:url(#SVGID_91_);}
	.st100{fill:url(#SVGID_92_);}
	.st101{fill:url(#SVGID_93_);}
	.st102{fill:url(#SVGID_94_);}
	.st103{fill:url(#SVGID_95_);}
	.st104{fill:url(#SVGID_96_);}
	.st105{fill:url(#SVGID_97_);}
	.st106{fill:url(#SVGID_98_);}
	.st107{fill:url(#SVGID_99_);}
	.st108{fill:url(#SVGID_100_);}
	.st109{fill:url(#SVGID_101_);}
	.st110{fill:url(#SVGID_102_);}
	.st111{fill:url(#SVGID_103_);}
	.st112{fill:url(#SVGID_104_);}
	.st113{fill:url(#SVGID_105_);}
	.st114{fill:url(#SVGID_106_);}
	.st115{fill:url(#SVGID_107_);}
	.st116{fill:url(#SVGID_108_);}
	.st117{fill:url(#SVGID_109_);}
	.st118{fill:url(#SVGID_110_);}
	.st119{fill:url(#SVGID_111_);}
	.st120{fill:url(#SVGID_112_);}
	.st121{fill:url(#SVGID_113_);}
	.st122{fill:url(#SVGID_114_);}
	.st123{fill:url(#SVGID_115_);}
	.st124{fill:url(#SVGID_116_);}
	.st125{fill:url(#SVGID_117_);}
	.st126{fill:url(#SVGID_118_);}
	.st127{fill:url(#SVGID_119_);}
	.st128{fill:url(#SVGID_120_);}
	.st129{fill:url(#SVGID_121_);}
	.st130{fill:url(#SVGID_122_);}
	.st131{fill:url(#SVGID_123_);}
	.st132{fill:url(#SVGID_124_);}
	.st133{fill:url(#SVGID_125_);}
	.st134{fill:url(#SVGID_126_);}
	.st135{fill:url(#SVGID_127_);}
	.st136{fill:url(#SVGID_128_);}
	.st137{fill:url(#SVGID_129_);}
	.st138{fill:url(#SVGID_130_);}
	.st139{fill:url(#SVGID_131_);}
	.st140{fill:url(#SVGID_132_);}
	.st141{fill:url(#SVGID_133_);}
	.st142{fill:url(#SVGID_134_);}
	.st143{fill:url(#SVGID_135_);}
	.st144{fill:url(#SVGID_136_);}
	.st145{fill:url(#SVGID_137_);}
	.st146{fill:url(#SVGID_138_);}
	.st147{fill:url(#SVGID_139_);}
	.st148{fill:url(#SVGID_140_);}
	.st149{fill:url(#SVGID_141_);}
	.st150{fill:url(#SVGID_142_);}
	.st151{fill:url(#SVGID_143_);}
	.st152{fill:url(#SVGID_144_);}
	.st153{fill:url(#SVGID_145_);}
	.st154{fill:url(#SVGID_146_);}
	.st155{fill:url(#SVGID_147_);}
	.st156{fill:url(#SVGID_148_);}
	.st157{fill:url(#SVGID_149_);}
	.st158{fill:url(#SVGID_150_);}
	.st159{fill:url(#SVGID_151_);}
	.st160{fill:url(#SVGID_152_);}
	.st161{fill:url(#SVGID_153_);}
	.st162{fill:url(#SVGID_154_);}
	.st163{fill:url(#SVGID_155_);}
	.st164{fill:url(#SVGID_156_);}
	.st165{fill:url(#SVGID_157_);}
	.st166{fill:url(#SVGID_158_);}
	.st167{fill:url(#SVGID_159_);}
	.st168{fill:url(#SVGID_160_);}
	.st169{fill:url(#SVGID_161_);}
	.st170{fill:url(#SVGID_162_);}
	.st171{fill:url(#SVGID_163_);}
	.st172{fill:url(#SVGID_164_);}
	.st173{fill:url(#SVGID_165_);}
	.st174{fill:url(#SVGID_166_);}
	.st175{fill:url(#SVGID_167_);}
	.st176{fill:url(#SVGID_168_);}
	.st177{fill:url(#SVGID_169_);}
	.st178{fill:url(#SVGID_170_);}
	.st179{fill:url(#SVGID_171_);}
	.st180{fill:url(#SVGID_172_);}
	.st181{fill:url(#SVGID_173_);}
	.st182{fill:url(#SVGID_174_);}
	.st183{fill:url(#SVGID_175_);}
	.st184{fill:url(#SVGID_176_);}
	.st185{fill:url(#SVGID_177_);}
	.st186{fill:url(#SVGID_178_);}
	.st187{fill:url(#SVGID_179_);}
	.st188{fill:url(#SVGID_180_);}
	.st189{fill:url(#SVGID_181_);}
</style>
<g>
	<g>
		<g>
			
				<radialGradient id="SVGID_1_" cx="64.17" cy="2979.6323" r="31.8393" gradientTransform="matrix(1 0 0 -1 0.2615 3026.8992)" gradientUnits="userSpaceOnUse">
				<stop  offset="0" style="stop-color:#F9DA52"/>
				<stop  offset="1" style="stop-color:#F7B82C"/>
			</radialGradient>
			<circle class="st0" cx="64.077" cy="55.352" r="24.089"/>
			<path class="st5" d="M64.077,31.73c12.978,0,23.622,10.551,23.622,23.622c0,12.978-10.551,23.622-23.622,23.622
				c-12.978,0-23.622-10.551-23.622-23.622C40.548,42.374,51.099,31.73,64.077,31.73 M64.077,30.703
				c-13.632,0-24.649,11.111-24.649,24.649c0,13.632,11.111,24.649,24.649,24.649c13.632,0,24.649-11.111,24.649-24.649
				C88.82,41.721,77.709,30.703,64.077,30.703L64.077,30.703z"/>
		</g>
	</g>
	<g>
		<path class="st6" d="M39.428,32.944c-0.467,0-0.84-0.187-1.12-0.467l-7.843-7.843c-0.28-0.28-0.467-0.747-0.467-1.12
			s0.187-0.84,0.467-1.12c0.28-0.28,0.747-0.467,1.12-0.467s0.84,0.187,1.12,0.467l7.843,7.843c0.28,0.28,0.467,0.747,0.467,1.12
			c0,0.467-0.187,0.84-0.467,1.12C40.268,32.851,39.895,32.944,39.428,32.944z"/>
		<path class="st7" d="M31.585,22.487c0.28,0,0.56,0.093,0.747,0.28l7.843,7.843c0.187,0.187,0.28,0.467,0.28,0.747
			s-0.093,0.56-0.28,0.747c-0.187,0.187-0.467,0.28-0.747,0.28s-0.56-0.093-0.747-0.28l-7.843-7.843
			c-0.187-0.187-0.28-0.467-0.28-0.747s0.093-0.56,0.28-0.747C31.025,22.58,31.305,22.487,31.585,22.487 M31.585,21.366
			c-0.56,0-1.12,0.187-1.494,0.654c-0.84,0.84-0.84,2.241,0,3.081l7.843,7.843c0.467,0.467,0.934,0.654,1.494,0.654
			s1.12-0.187,1.494-0.654c0.84-0.84,0.84-2.241,0-3.081l-7.843-7.843C32.705,21.553,32.145,21.366,31.585,21.366L31.585,21.366z"/>
	</g>
	<g>
		<path class="st6" d="M21.314,57.406c-0.934,0-1.587-0.747-1.587-1.587s0.747-1.587,1.587-1.587h7.936
			c0.934,0,1.587,0.747,1.587,1.587s-0.747,1.587-1.587,1.587H21.314z"/>
		<path class="st7" d="M29.251,54.699c0.56,0,1.12,0.467,1.12,1.12c0,0.56-0.467,1.12-1.12,1.12h-7.936
			c-0.56,0-1.12-0.467-1.12-1.12c0-0.56,0.467-1.12,1.12-1.12H29.251 M29.251,53.578h-7.936c-1.214,0-2.148,0.934-2.148,2.147
			c0,1.214,0.934,2.147,2.148,2.147h7.936c1.214,0,2.148-0.934,2.148-2.147C31.492,54.605,30.465,53.578,29.251,53.578
			L29.251,53.578z"/>
	</g>
	<g>
		<path class="st6" d="M63.89,22.86c-0.934,0-1.587-0.747-1.587-1.587v-7.936c0-0.934,0.747-1.587,1.587-1.587
			c0.934,0,1.587,0.747,1.587,1.587v7.936C65.478,22.113,64.731,22.86,63.89,22.86z"/>
		<path class="st7" d="M63.89,12.216c0.56,0,1.12,0.467,1.12,1.12v7.936c0,0.56-0.467,1.12-1.12,1.12c-0.56,0-1.12-0.467-1.12-1.12
			v-7.936C62.77,12.683,63.237,12.216,63.89,12.216 M63.89,11.096c-1.214,0-2.148,0.934-2.148,2.147v7.936
			c0,1.214,0.934,2.147,2.148,2.147s2.148-0.934,2.148-2.147v-7.936C66.038,12.029,65.011,11.096,63.89,11.096L63.89,11.096z"/>
	</g>
	<g>
		<path class="st6" d="M31.585,89.712c-0.467,0-0.84-0.187-1.12-0.467c-0.654-0.654-0.654-1.681,0-2.334l7.843-7.843
			c0.28-0.28,0.747-0.467,1.12-0.467c0.467,0,0.84,0.187,1.12,0.467c0.28,0.28,0.467,0.747,0.467,1.12
			c0,0.373-0.187,0.84-0.467,1.12l-7.843,7.843C32.425,89.525,32.052,89.712,31.585,89.712z"/>
		<path class="st7" d="M39.428,79.161c0.28,0,0.56,0.093,0.747,0.28c0.187,0.187,0.28,0.467,0.28,0.747
			c0,0.28-0.093,0.56-0.28,0.747l-7.843,7.843c-0.187,0.187-0.467,0.28-0.747,0.28c-0.28,0-0.56-0.093-0.747-0.28
			c-0.187-0.187-0.28-0.467-0.28-0.747c0-0.28,0.093-0.56,0.28-0.747l7.843-7.843C38.868,79.255,39.148,79.161,39.428,79.161
			 M39.428,78.041c-0.56,0-1.12,0.187-1.494,0.654l-7.843,7.843c-0.84,0.84-0.84,2.241,0,3.081c0.467,0.467,0.934,0.654,1.494,0.654
			c0.56,0,1.12-0.187,1.494-0.654l7.843-7.843c0.84-0.84,0.84-2.241,0-3.081C40.548,78.321,39.988,78.041,39.428,78.041
			L39.428,78.041z"/>
	</g>
	<g>
		<path class="st6" d="M88.26,32.944c-0.467,0-0.84-0.187-1.12-0.467c-0.28-0.28-0.467-0.747-0.467-1.12
			c0-0.467,0.187-0.84,0.467-1.12l7.843-7.843c0.28-0.28,0.747-0.467,1.12-0.467c0.467,0,0.84,0.187,1.12,0.467
			c0.28,0.28,0.467,0.747,0.467,1.12s-0.187,0.84-0.467,1.12l-7.843,7.843C89.1,32.851,88.726,32.944,88.26,32.944z"/>
		<path class="st7" d="M96.103,22.487c0.28,0,0.56,0.093,0.747,0.28c0.187,0.187,0.28,0.467,0.28,0.747s-0.093,0.56-0.28,0.747
			l-7.843,7.843c-0.187,0.187-0.467,0.28-0.747,0.28s-0.56-0.093-0.747-0.28c-0.187-0.187-0.28-0.467-0.28-0.747
			s0.093-0.56,0.28-0.747l7.843-7.843C95.542,22.58,95.822,22.487,96.103,22.487 M96.103,21.366c-0.56,0-1.12,0.187-1.494,0.654
			l-7.843,7.843c-0.84,0.84-0.84,2.241,0,3.081c0.467,0.467,0.934,0.654,1.494,0.654s1.12-0.187,1.494-0.654l7.843-7.843
			c0.84-0.84,0.84-2.241,0-3.081C97.223,21.553,96.663,21.366,96.103,21.366L96.103,21.366z"/>
	</g>
	<g>
		
			<radialGradient id="SVGID_2_" cx="67.6806" cy="2951.3735" r="56.5032" gradientTransform="matrix(1 0 0 -1 0 3026.8655)" gradientUnits="userSpaceOnUse">
			<stop  offset="0" style="stop-color:#F4FAFF"/>
			<stop  offset="1" style="stop-color:#DDEFFA"/>
		</radialGradient>
		<path class="st2" d="M67.718,98.489c-5.602,0-10.737-3.361-12.978-8.497c-0.747-1.774-1.214-3.735-1.214-5.602
			c0-7.843,6.349-14.192,14.099-14.192c0.84,0,1.681,0.093,2.521,0.28l0.373,0.093l0.187-0.373c0.28-0.56,0.56-1.214,0.84-1.867
			c0.093-0.28,0.28-0.467,0.373-0.747l0.093-0.187c0.56-0.934,1.12-1.774,1.774-2.521l0.093-0.093
			c0.093-0.187,0.28-0.28,0.373-0.467c1.867-2.054,4.108-3.641,6.629-4.762c2.428-1.027,4.949-1.587,7.469-1.587
			c6.629,0,12.698,3.361,16.153,9.057l0.187,0.28l0.28-0.093c0.84-0.187,1.681-0.28,2.521-0.28c8.683,0,15.779,7.096,15.779,15.779
			s-7.096,15.779-15.779,15.779L67.718,98.489L67.718,98.489z"/>
		<path class="st30" d="M88.446,58.527c6.442,0,12.325,3.268,15.686,8.777l0.373,0.56l0.654-0.093
			c0.84-0.187,1.681-0.187,2.428-0.187c8.403,0,15.219,6.816,15.219,15.312c0,8.403-6.816,15.219-15.312,15.219H67.625
			c-5.415,0-10.364-3.268-12.511-8.216c-0.747-1.774-1.12-3.548-1.12-5.415c0-7.563,6.162-13.632,13.632-13.632
			c0.84,0,1.587,0.093,2.428,0.28l0.747,0.187l0.28-0.747c0.187-0.56,0.467-1.214,0.84-1.774c0.093-0.28,0.28-0.467,0.373-0.747
			l0.093-0.187c0.56-0.934,1.12-1.774,1.774-2.521l0.093-0.093c0.093-0.187,0.187-0.28,0.373-0.373
			c1.774-1.961,4.015-3.548,6.442-4.668C83.498,58.994,86.019,58.527,88.446,58.527 M88.446,57.593c-2.614,0-5.135,0.56-7.656,1.681
			c-2.614,1.12-4.855,2.801-6.722,4.855c-0.093,0.187-0.28,0.28-0.373,0.467l-0.093,0.093c-0.654,0.747-1.214,1.681-1.774,2.614
			l-0.093,0.187c-0.187,0.28-0.28,0.467-0.467,0.747c-0.373,0.654-0.654,1.307-0.84,1.867c-0.934-0.187-1.774-0.28-2.614-0.28
			c-8.03,0-14.659,6.536-14.659,14.659c0,1.961,0.373,3.921,1.214,5.789c2.334,5.322,7.563,8.777,13.352,8.777h39.868
			c8.963,0,16.246-7.283,16.246-16.246s-7.283-16.246-16.246-16.246c-0.84,0-1.681,0.093-2.614,0.28
			C101.425,61.048,95.262,57.593,88.446,57.593L88.446,57.593z"/>
	</g>
</g>
</svg>
