<?xml version="1.0" encoding="utf-8"?>
<!-- Generator: Adobe Illustrator 23.0.1, SVG Export Plug-In . SVG Version: 6.00 Build 0)  -->
<svg version="1.1" id="Ebene_2" xmlns="http://www.w3.org/2000/svg" xmlns:xlink="http://www.w3.org/1999/xlink" x="0px" y="0px"
	 viewBox="0 0 143 122" style="enable-background:new 0 0 143 122;" xml:space="preserve">
<style type="text/css">
	.st0{fill:url(#SVGID_1_);}
	.st1{fill:#DADCDE;}
	.st2{fill:url(#SVGID_2_);}
	.st3{fill:#59B9E8;}
	.st4{fill:url(#SVGID_3_);}
	.st5{fill:#F7B82C;}
	.st6{fill:#F7B82D;}
	.st7{fill:#F5AE23;}
	.st8{fill:url(#SVGID_4_);}
	.st9{fill:url(#SVGID_5_);}
	.st10{fill:url(#SVGID_6_);}
	.st11{fill:url(#SVGID_7_);}
	.st12{fill:url(#SVGID_8_);}
	.st13{fill:url(#SVGID_9_);}
	.st14{fill:url(#SVGID_10_);}
	.st15{fill:url(#SVGID_11_);}
	.st16{fill:url(#SVGID_12_);}
	.st17{fill:url(#SVGID_13_);}
	.st18{fill:url(#SVGID_14_);}
	.st19{fill:url(#SVGID_15_);}
	.st20{fill:url(#SVGID_16_);}
	.st21{fill:url(#SVGID_17_);}
	.st22{fill:url(#SVGID_18_);}
	.st23{fill:url(#SVGID_19_);}
	.st24{fill:url(#SVGID_20_);}
	.st25{fill:url(#SVGID_21_);}
	.st26{fill:url(#SVGID_22_);}
	.st27{fill:url(#SVGID_23_);}
	.st28{fill:url(#SVGID_24_);}
	.st29{fill:url(#SVGID_25_);}
	.st30{fill:#BEE2F1;}
	.st31{fill:url(#SVGID_26_);}
	.st32{fill:url(#SVGID_27_);}
	.st33{fill:url(#SVGID_28_);}
	.st34{fill:url(#SVGID_29_);}
	.st35{fill:#CBD9E7;}
	.st36{fill:#C3CFDA;}
	.st37{fill:url(#SVGID_30_);}
	.st38{fill:url(#SVGID_31_);}
	.st39{fill:url(#SVGID_32_);}
	.st40{fill:url(#SVGID_33_);}
	.st41{fill:url(#SVGID_34_);}
	.st42{fill:url(#SVGID_35_);}
	.st43{fill:url(#SVGID_36_);}
	.st44{fill:url(#SVGID_37_);}
	.st45{fill:url(#SVGID_38_);}
	.st46{fill:url(#SVGID_39_);}
	.st47{fill:url(#SVGID_40_);}
	.st48{fill:url(#SVGID_41_);}
	.st49{fill:url(#SVGID_42_);}
	.st50{fill:url(#SVGID_43_);}
	.st51{fill:url(#SVGID_44_);}
	.st52{fill:url(#SVGID_45_);}
	.st53{fill:url(#SVGID_46_);}
	.st54{fill:url(#SVGID_47_);}
	.st55{fill:url(#SVGID_48_);}
	.st56{fill:url(#SVGID_49_);}
	.st57{fill:url(#SVGID_50_);}
	.st58{fill:url(#SVGID_51_);}
	.st59{fill:url(#SVGID_52_);}
	.st60{fill:url(#SVGID_53_);}
	.st61{fill:url(#SVGID_54_);}
	.st62{fill:url(#SVGID_55_);}
	.st63{fill:url(#SVGID_56_);}
	.st64{fill:url(#SVGID_57_);}
	.st65{fill:url(#SVGID_58_);}
	.st66{fill:url(#SVGID_59_);}
	.st67{fill:url(#SVGID_60_);}
	.st68{fill:url(#SVGID_61_);}
	.st69{fill:url(#SVGID_62_);}
	.st70{fill:url(#SVGID_63_);}
	.st71{fill:url(#SVGID_64_);}
	.st72{fill:url(#SVGID_65_);}
	.st73{fill:url(#SVGID_66_);}
	.st74{fill:url(#SVGID_67_);}
	.st75{fill:url(#SVGID_68_);}
	.st76{fill:url(#SVGID_69_);}
	.st77{fill:url(#SVGID_70_);}
	.st78{fill:#FFFFFF;}
	.st79{fill:url(#SVGID_71_);}
	.st80{fill:url(#SVGID_72_);}
	.st81{fill:url(#SVGID_73_);}
	.st82{fill:url(#SVGID_74_);}
	.st83{fill:url(#SVGID_75_);}
	.st84{fill:url(#SVGID_76_);}
	.st85{fill:url(#SVGID_77_);}
	.st86{fill:url(#SVGID_78_);}
	.st87{fill:url(#SVGID_79_);}
	.st88{fill:url(#SVGID_80_);}
	.st89{fill:url(#SVGID_81_);}
	.st90{fill:url(#SVGID_82_);}
	.st91{fill:url(#SVGID_83_);}
	.st92{fill:url(#SVGID_84_);}
	.st93{fill:url(#SVGID_85_);}
	.st94{fill:url(#SVGID_86_);}
	.st95{fill:url(#SVGID_87_);}
	.st96{fill:url(#SVGID_88_);}
	.st97{fill:url(#SVGID_89_);}
	.st98{fill:url(#SVGID_90_);}
	.st99{fill:url(#SVGID_91_);}
	.st100{fill:url(#SVGID_92_);}
	.st101{fill:url(#SVGID_93_);}
	.st102{fill:url(#SVGID_94_);}
	.st103{fill:url(#SVGID_95_);}
	.st104{fill:url(#SVGID_96_);}
	.st105{fill:url(#SVGID_97_);}
	.st106{fill:url(#SVGID_98_);}
	.st107{fill:url(#SVGID_99_);}
	.st108{fill:url(#SVGID_100_);}
	.st109{fill:url(#SVGID_101_);}
	.st110{fill:url(#SVGID_102_);}
	.st111{fill:url(#SVGID_103_);}
	.st112{fill:url(#SVGID_104_);}
	.st113{fill:url(#SVGID_105_);}
	.st114{fill:url(#SVGID_106_);}
	.st115{fill:url(#SVGID_107_);}
	.st116{fill:url(#SVGID_108_);}
	.st117{fill:url(#SVGID_109_);}
	.st118{fill:url(#SVGID_110_);}
	.st119{fill:url(#SVGID_111_);}
	.st120{fill:url(#SVGID_112_);}
	.st121{fill:url(#SVGID_113_);}
	.st122{fill:url(#SVGID_114_);}
	.st123{fill:url(#SVGID_115_);}
	.st124{fill:url(#SVGID_116_);}
	.st125{fill:url(#SVGID_117_);}
	.st126{fill:url(#SVGID_118_);}
	.st127{fill:url(#SVGID_119_);}
	.st128{fill:url(#SVGID_120_);}
	.st129{fill:url(#SVGID_121_);}
	.st130{fill:url(#SVGID_122_);}
	.st131{fill:url(#SVGID_123_);}
	.st132{fill:url(#SVGID_124_);}
	.st133{fill:url(#SVGID_125_);}
	.st134{fill:url(#SVGID_126_);}
	.st135{fill:url(#SVGID_127_);}
	.st136{fill:url(#SVGID_128_);}
	.st137{fill:url(#SVGID_129_);}
	.st138{fill:url(#SVGID_130_);}
	.st139{fill:url(#SVGID_131_);}
	.st140{fill:url(#SVGID_132_);}
	.st141{fill:url(#SVGID_133_);}
	.st142{fill:url(#SVGID_134_);}
	.st143{fill:url(#SVGID_135_);}
	.st144{fill:url(#SVGID_136_);}
	.st145{fill:url(#SVGID_137_);}
	.st146{fill:url(#SVGID_138_);}
	.st147{fill:url(#SVGID_139_);}
	.st148{fill:url(#SVGID_140_);}
	.st149{fill:url(#SVGID_141_);}
	.st150{fill:url(#SVGID_142_);}
	.st151{fill:url(#SVGID_143_);}
	.st152{fill:url(#SVGID_144_);}
	.st153{fill:url(#SVGID_145_);}
	.st154{fill:url(#SVGID_146_);}
	.st155{fill:url(#SVGID_147_);}
	.st156{fill:url(#SVGID_148_);}
	.st157{fill:url(#SVGID_149_);}
	.st158{fill:url(#SVGID_150_);}
	.st159{fill:url(#SVGID_151_);}
	.st160{fill:url(#SVGID_152_);}
	.st161{fill:url(#SVGID_153_);}
	.st162{fill:url(#SVGID_154_);}
	.st163{fill:url(#SVGID_155_);}
	.st164{fill:url(#SVGID_156_);}
	.st165{fill:url(#SVGID_157_);}
	.st166{fill:url(#SVGID_158_);}
	.st167{fill:url(#SVGID_159_);}
	.st168{fill:url(#SVGID_160_);}
	.st169{fill:url(#SVGID_161_);}
	.st170{fill:url(#SVGID_162_);}
	.st171{fill:url(#SVGID_163_);}
	.st172{fill:url(#SVGID_164_);}
	.st173{fill:url(#SVGID_165_);}
	.st174{fill:url(#SVGID_166_);}
	.st175{fill:url(#SVGID_167_);}
	.st176{fill:url(#SVGID_168_);}
	.st177{fill:url(#SVGID_169_);}
	.st178{fill:url(#SVGID_170_);}
	.st179{fill:url(#SVGID_171_);}
	.st180{fill:url(#SVGID_172_);}
	.st181{fill:url(#SVGID_173_);}
	.st182{fill:url(#SVGID_174_);}
	.st183{fill:url(#SVGID_175_);}
	.st184{fill:url(#SVGID_176_);}
	.st185{fill:url(#SVGID_177_);}
	.st186{fill:url(#SVGID_178_);}
	.st187{fill:url(#SVGID_179_);}
	.st188{fill:url(#SVGID_180_);}
	.st189{fill:url(#SVGID_181_);}
</style>
<g>
	<g>
		
			<radialGradient id="SVGID_1_" cx="69.48" cy="2980.2725" r="31.8393" gradientTransform="matrix(1 0 0 -1 0.2615 3026.8992)" gradientUnits="userSpaceOnUse">
			<stop  offset="0" style="stop-color:#F9DA52"/>
			<stop  offset="1" style="stop-color:#F7B82C"/>
		</radialGradient>
		<circle class="st0" cx="69.446" cy="54.699" r="24.089"/>
		<path class="st5" d="M69.446,31.17c12.978,0,23.622,10.551,23.622,23.622c0,12.978-10.551,23.622-23.622,23.622
			S45.824,67.864,45.824,54.792C45.824,41.721,56.374,31.17,69.446,31.17 M69.446,30.05c-13.632,0-24.649,11.111-24.649,24.649
			c0,13.632,11.111,24.649,24.649,24.649c13.632,0,24.649-11.111,24.649-24.649C94.095,41.16,82.984,30.05,69.446,30.05
			L69.446,30.05z"/>
	</g>
	<g>
		<path class="st6" d="M44.703,32.384c-0.467,0-0.84-0.187-1.12-0.467l-7.843-7.843c-0.654-0.654-0.654-1.681,0-2.334
			c0.28-0.28,0.747-0.467,1.12-0.467c0.467,0,0.84,0.187,1.12,0.467l7.843,7.843c0.654,0.654,0.654,1.681,0,2.334
			C45.544,32.197,45.17,32.384,44.703,32.384z"/>
		<path class="st7" d="M36.86,21.833c0.28,0,0.56,0.093,0.747,0.28l7.843,7.843c0.187,0.187,0.28,0.467,0.28,0.747
			c0,0.28-0.093,0.56-0.28,0.747c-0.187,0.187-0.467,0.28-0.747,0.28s-0.56-0.093-0.747-0.28l-7.843-7.843
			c-0.187-0.187-0.28-0.467-0.28-0.747s0.093-0.56,0.28-0.747C36.3,21.926,36.58,21.833,36.86,21.833 M36.86,20.713
			c-0.56,0-1.12,0.187-1.494,0.654c-0.84,0.84-0.84,2.241,0,3.081l7.843,7.843c0.467,0.467,0.934,0.654,1.494,0.654
			s1.12-0.187,1.494-0.654c0.84-0.84,0.84-2.241,0-3.081l-7.843-7.843C37.981,20.899,37.421,20.713,36.86,20.713L36.86,20.713z"/>
	</g>
	<g>
		<path class="st6" d="M26.59,56.753c-0.934,0-1.587-0.747-1.587-1.587s0.747-1.587,1.587-1.587h7.936
			c0.934,0,1.587,0.747,1.587,1.587s-0.747,1.587-1.587,1.587H26.59z"/>
		<path class="st7" d="M34.619,54.045c0.56,0,1.12,0.467,1.12,1.12s-0.467,1.12-1.12,1.12h-7.936c-0.56,0-1.12-0.467-1.12-1.12
			s0.467-1.12,1.12-1.12H34.619 M34.619,53.018h-7.936c-1.214,0-2.148,0.934-2.148,2.147s0.934,2.147,2.148,2.147h7.936
			c1.214,0,2.148-0.934,2.148-2.147S35.833,53.018,34.619,53.018L34.619,53.018z"/>
	</g>
	<g>
		<path class="st6" d="M104.179,55.913c-0.934,0-1.587-0.747-1.587-1.587c0-0.84,0.747-1.587,1.587-1.587h7.936
			c0.934,0,1.587,0.747,1.587,1.587c0,0.84-0.747,1.587-1.587,1.587H104.179z"/>
		<path class="st7" d="M112.209,53.205c0.56,0,1.12,0.467,1.12,1.12c0,0.56-0.467,1.12-1.12,1.12h-7.936
			c-0.56,0-1.12-0.467-1.12-1.12c0-0.56,0.467-1.12,1.12-1.12H112.209 M112.209,52.084h-7.936c-1.214,0-2.148,0.934-2.148,2.147
			s0.934,2.147,2.148,2.147h7.936c1.214,0,2.148-0.934,2.148-2.147C114.356,53.112,113.422,52.084,112.209,52.084L112.209,52.084z"
			/>
	</g>
	<g>
		<path class="st6" d="M69.166,22.207c-0.934,0-1.587-0.747-1.587-1.587v-7.936c0-0.934,0.747-1.587,1.587-1.587
			c0.934,0,1.587,0.747,1.587,1.587v7.936C70.753,21.46,70.099,22.207,69.166,22.207z"/>
		<path class="st7" d="M69.166,11.563c0.56,0,1.12,0.467,1.12,1.12v7.936c0,0.56-0.467,1.12-1.12,1.12c-0.56,0-1.12-0.467-1.12-1.12
			v-7.936C68.045,12.029,68.606,11.563,69.166,11.563 M69.166,10.442c-1.214,0-2.148,0.934-2.148,2.147v7.936
			c0,1.214,0.934,2.147,2.148,2.147s2.148-0.934,2.148-2.147V12.59C71.313,11.376,70.38,10.442,69.166,10.442L69.166,10.442z"/>
	</g>
	<g>
		<path class="st6" d="M93.628,32.384c-0.467,0-0.84-0.187-1.12-0.467c-0.28-0.28-0.467-0.747-0.467-1.12
			c0-0.467,0.187-0.84,0.467-1.12l7.843-7.843c0.28-0.28,0.747-0.467,1.12-0.467s0.84,0.187,1.12,0.467
			c0.654,0.654,0.654,1.681,0,2.334l-7.843,7.843C94.469,32.197,94.002,32.384,93.628,32.384z"/>
		<path class="st7" d="M101.378,21.833c0.28,0,0.56,0.093,0.747,0.28c0.187,0.187,0.28,0.467,0.28,0.747s-0.093,0.56-0.28,0.747
			l-7.843,7.843c-0.187,0.187-0.467,0.28-0.747,0.28s-0.56-0.093-0.747-0.28c-0.187-0.187-0.28-0.467-0.28-0.747
			c0-0.28,0.093-0.56,0.28-0.747l7.843-7.843C100.818,21.926,101.098,21.833,101.378,21.833 M101.378,20.713
			c-0.56,0-1.12,0.187-1.494,0.654l-7.843,7.843c-0.84,0.84-0.84,2.241,0,3.081c0.467,0.467,0.934,0.654,1.494,0.654
			s1.12-0.187,1.494-0.654l7.843-7.843c0.84-0.84,0.84-2.241,0-3.081C102.498,20.899,101.938,20.713,101.378,20.713L101.378,20.713z
			"/>
	</g>
	<g>
		
			<radialGradient id="SVGID_2_" cx="47.9208" cy="2952.0798" r="33.8884" gradientTransform="matrix(1 0 0 -1 0 3026.8655)" gradientUnits="userSpaceOnUse">
			<stop  offset="0" style="stop-color:#FBFBFB"/>
			<stop  offset="1" style="stop-color:#E7E7E7"/>
		</radialGradient>
		<path class="st2" d="M37.047,68.797c-1.307,0-2.334-1.027-2.334-2.334c0-1.307,1.027-2.334,2.334-2.334h69.466
			c1.307,0,2.334,1.027,2.334,2.334c0,1.307-1.027,2.334-2.334,2.334H37.047z"/>
		<path class="st1" d="M106.513,64.689c1.027,0,1.774,0.84,1.774,1.774c0,0.934-0.84,1.774-1.774,1.774H37.047
			c-1.027,0-1.774-0.84-1.774-1.774c0-0.934,0.84-1.774,1.774-1.774H106.513 M106.513,63.569H37.047
			c-1.587,0-2.894,1.307-2.894,2.894c0,1.587,1.307,2.894,2.894,2.894h69.466c1.587,0,2.894-1.307,2.894-2.894
			C109.408,64.876,108.101,63.569,106.513,63.569L106.513,63.569z"/>
	</g>
	<g>
		
			<radialGradient id="SVGID_3_" cx="48.0511" cy="2949.9453" r="33.9468" gradientTransform="matrix(1 0 0 -1 0 3026.8655)" gradientUnits="userSpaceOnUse">
			<stop  offset="0" style="stop-color:#FBFBFB"/>
			<stop  offset="1" style="stop-color:#E7E7E7"/>
		</radialGradient>
		<path class="st4" d="M46.01,80.188c-1.307,0-2.334-1.027-2.334-2.334c0-1.307,1.027-2.334,2.334-2.334h69.466
			c1.307,0,2.334,1.027,2.334,2.334c0,1.307-1.027,2.334-2.334,2.334H46.01z"/>
		<path class="st1" d="M115.57,75.987c1.027,0,1.774,0.84,1.774,1.774s-0.84,1.774-1.774,1.774H46.104
			c-1.027,0-1.774-0.84-1.774-1.774s0.84-1.774,1.774-1.774H115.57 M115.57,74.96H46.104c-1.587,0-2.894,1.307-2.894,2.894
			c0,1.587,1.307,2.894,2.894,2.894h69.466c1.587,0,2.894-1.307,2.894-2.894C118.464,76.267,117.157,74.96,115.57,74.96
			L115.57,74.96z"/>
	</g>
	<g>
		
			<radialGradient id="SVGID_4_" cx="47.8688" cy="2947.8101" r="33.6071" gradientTransform="matrix(1 0 0 -1 0 3026.8655)" gradientUnits="userSpaceOnUse">
			<stop  offset="0" style="stop-color:#FBFBFB"/>
			<stop  offset="1" style="stop-color:#E7E7E7"/>
		</radialGradient>
		<path class="st8" d="M33.499,91.579c-1.307,0-2.334-1.027-2.334-2.334c0-1.307,1.027-2.334,2.334-2.334h69.466
			c1.307,0,2.334,1.027,2.334,2.334c0,1.307-1.027,2.334-2.334,2.334H33.499z"/>
		<path class="st1" d="M102.965,87.378c1.027,0,1.774,0.84,1.774,1.774s-0.84,1.774-1.774,1.774H33.499
			c-1.027,0-1.774-0.84-1.774-1.774s0.84-1.774,1.774-1.774H102.965 M102.965,86.351H33.499c-1.587,0-2.894,1.307-2.894,2.894
			c0,1.587,1.307,2.894,2.894,2.894h69.466c1.587,0,2.894-1.307,2.894-2.894C105.86,87.658,104.552,86.351,102.965,86.351
			L102.965,86.351z"/>
	</g>
</g>
</svg>
