<?xml version="1.0" encoding="utf-8"?>
<!-- Generator: Adobe Illustrator 23.0.1, SVG Export Plug-In . SVG Version: 6.00 Build 0)  -->
<svg version="1.1" id="Ebene_2" xmlns="http://www.w3.org/2000/svg" xmlns:xlink="http://www.w3.org/1999/xlink" x="0px" y="0px"
	 viewBox="0 0 143 122" style="enable-background:new 0 0 143 122;" xml:space="preserve">
<style type="text/css">
	.st0{fill:url(#SVGID_1_);}
	.st1{fill:#DADCDE;}
	.st2{fill:url(#SVGID_2_);}
	.st3{fill:url(#SVGID_3_);}
	.st4{fill:#59B9E8;}
	.st5{fill:url(#SVGID_4_);}
	.st6{fill:url(#SVGID_5_);}
	.st7{fill:url(#SVGID_6_);}
	.st8{fill:url(#SVGID_7_);}
	.st9{fill:#CBD9E7;}
	.st10{fill:#C3CFDA;}
	.st11{fill:url(#SVGID_8_);}
	.st12{fill:#BEE2F1;}
	.st13{fill:url(#SVGID_9_);}
	.st14{fill:url(#SVGID_10_);}
	.st15{fill:url(#SVGID_11_);}
	.st16{fill:url(#SVGID_12_);}
	.st17{fill:url(#SVGID_13_);}
	.st18{fill:url(#SVGID_14_);}
	.st19{fill:url(#SVGID_15_);}
	.st20{fill:url(#SVGID_16_);}
	.st21{fill:url(#SVGID_17_);}
	.st22{fill:url(#SVGID_18_);}
	.st23{fill:url(#SVGID_19_);}
	.st24{fill:url(#SVGID_20_);}
	.st25{fill:#F7B82C;}
	.st26{fill:#F5AE23;}
	.st27{fill:url(#SVGID_21_);}
	.st28{fill:url(#SVGID_22_);}
	.st29{fill:url(#SVGID_23_);}
	.st30{fill:url(#SVGID_24_);}
	.st31{fill:url(#SVGID_25_);}
	.st32{fill:url(#SVGID_26_);}
	.st33{fill:url(#SVGID_27_);}
	.st34{fill:url(#SVGID_28_);}
	.st35{fill:url(#SVGID_29_);}
	.st36{fill:url(#SVGID_30_);}
	.st37{fill:url(#SVGID_31_);}
	.st38{fill:url(#SVGID_32_);}
	.st39{fill:url(#SVGID_33_);}
	.st40{fill:url(#SVGID_34_);}
	.st41{fill:url(#SVGID_35_);}
	.st42{fill:url(#SVGID_36_);}
	.st43{fill:url(#SVGID_37_);}
	.st44{fill:url(#SVGID_38_);}
	.st45{fill:url(#SVGID_39_);}
	.st46{fill:url(#SVGID_40_);}
	.st47{fill:url(#SVGID_41_);}
	.st48{fill:url(#SVGID_42_);}
	.st49{fill:url(#SVGID_43_);}
	.st50{fill:#FFFFFF;}
	.st51{fill:url(#SVGID_44_);}
	.st52{fill:url(#SVGID_45_);}
	.st53{fill:url(#SVGID_46_);}
	.st54{fill:url(#SVGID_47_);}
	.st55{fill:url(#SVGID_48_);}
	.st56{fill:url(#SVGID_49_);}
	.st57{fill:url(#SVGID_50_);}
	.st58{fill:url(#SVGID_51_);}
	.st59{fill:url(#SVGID_52_);}
	.st60{fill:url(#SVGID_53_);}
	.st61{fill:url(#SVGID_54_);}
	.st62{fill:url(#SVGID_55_);}
	.st63{fill:url(#SVGID_56_);}
	.st64{fill:#F7B82D;}
	.st65{fill:url(#SVGID_57_);}
	.st66{fill:url(#SVGID_58_);}
	.st67{fill:url(#SVGID_59_);}
	.st68{fill:url(#SVGID_60_);}
	.st69{fill:url(#SVGID_61_);}
	.st70{fill:url(#SVGID_62_);}
	.st71{fill:url(#SVGID_63_);}
	.st72{fill:url(#SVGID_64_);}
	.st73{fill:url(#SVGID_65_);}
	.st74{fill:url(#SVGID_66_);}
	.st75{fill:url(#SVGID_67_);}
	.st76{fill:url(#SVGID_68_);}
	.st77{fill:url(#SVGID_69_);}
	.st78{fill:url(#SVGID_70_);}
	.st79{fill:url(#SVGID_71_);}
	.st80{fill:url(#SVGID_72_);}
	.st81{fill:url(#SVGID_73_);}
	.st82{fill:url(#SVGID_74_);}
	.st83{fill:url(#SVGID_75_);}
	.st84{fill:url(#SVGID_76_);}
	.st85{fill:url(#SVGID_77_);}
	.st86{fill:url(#SVGID_78_);}
	.st87{fill:url(#SVGID_79_);}
	.st88{fill:url(#SVGID_80_);}
	.st89{fill:url(#SVGID_81_);}
	.st90{fill:url(#SVGID_82_);}
	.st91{fill:url(#SVGID_83_);}
	.st92{fill:url(#SVGID_84_);}
	.st93{fill:url(#SVGID_85_);}
	.st94{fill:url(#SVGID_86_);}
	.st95{fill:url(#SVGID_87_);}
	.st96{fill:url(#SVGID_88_);}
	.st97{fill:url(#SVGID_89_);}
	.st98{fill:url(#SVGID_90_);}
	.st99{fill:url(#SVGID_91_);}
	.st100{fill:url(#SVGID_92_);}
	.st101{fill:url(#SVGID_93_);}
	.st102{fill:url(#SVGID_94_);}
	.st103{fill:url(#SVGID_95_);}
	.st104{fill:url(#SVGID_96_);}
	.st105{fill:url(#SVGID_97_);}
	.st106{fill:url(#SVGID_98_);}
	.st107{fill:url(#SVGID_99_);}
	.st108{fill:url(#SVGID_100_);}
	.st109{fill:url(#SVGID_101_);}
	.st110{fill:url(#SVGID_102_);}
	.st111{fill:url(#SVGID_103_);}
	.st112{fill:url(#SVGID_104_);}
	.st113{fill:url(#SVGID_105_);}
	.st114{fill:url(#SVGID_106_);}
	.st115{fill:url(#SVGID_107_);}
	.st116{fill:url(#SVGID_108_);}
	.st117{fill:url(#SVGID_109_);}
	.st118{fill:url(#SVGID_110_);}
	.st119{fill:url(#SVGID_111_);}
	.st120{fill:url(#SVGID_112_);}
	.st121{fill:url(#SVGID_113_);}
	.st122{fill:url(#SVGID_114_);}
	.st123{fill:url(#SVGID_115_);}
	.st124{fill:url(#SVGID_116_);}
	.st125{fill:url(#SVGID_117_);}
	.st126{fill:url(#SVGID_118_);}
	.st127{fill:url(#SVGID_119_);}
	.st128{fill:url(#SVGID_120_);}
	.st129{fill:url(#SVGID_121_);}
	.st130{fill:url(#SVGID_122_);}
	.st131{fill:url(#SVGID_123_);}
	.st132{fill:url(#SVGID_124_);}
	.st133{fill:url(#SVGID_125_);}
	.st134{fill:url(#SVGID_126_);}
	.st135{fill:url(#SVGID_127_);}
	.st136{fill:url(#SVGID_128_);}
	.st137{fill:url(#SVGID_129_);}
	.st138{fill:url(#SVGID_130_);}
	.st139{fill:url(#SVGID_131_);}
	.st140{fill:url(#SVGID_132_);}
	.st141{fill:url(#SVGID_133_);}
	.st142{fill:url(#SVGID_134_);}
	.st143{fill:url(#SVGID_135_);}
	.st144{fill:url(#SVGID_136_);}
	.st145{fill:url(#SVGID_137_);}
	.st146{fill:url(#SVGID_138_);}
	.st147{fill:url(#SVGID_139_);}
	.st148{fill:url(#SVGID_140_);}
	.st149{fill:url(#SVGID_141_);}
	.st150{fill:url(#SVGID_142_);}
	.st151{fill:url(#SVGID_143_);}
	.st152{fill:url(#SVGID_144_);}
	.st153{fill:url(#SVGID_145_);}
	.st154{fill:url(#SVGID_146_);}
	.st155{fill:url(#SVGID_147_);}
	.st156{fill:url(#SVGID_148_);}
	.st157{fill:url(#SVGID_149_);}
	.st158{fill:url(#SVGID_150_);}
	.st159{fill:url(#SVGID_151_);}
	.st160{fill:url(#SVGID_152_);}
	.st161{fill:url(#SVGID_153_);}
	.st162{fill:url(#SVGID_154_);}
	.st163{fill:url(#SVGID_155_);}
	.st164{fill:url(#SVGID_156_);}
	.st165{fill:url(#SVGID_157_);}
	.st166{fill:url(#SVGID_158_);}
	.st167{fill:url(#SVGID_159_);}
	.st168{fill:url(#SVGID_160_);}
	.st169{fill:url(#SVGID_161_);}
	.st170{fill:url(#SVGID_162_);}
	.st171{fill:url(#SVGID_163_);}
	.st172{fill:url(#SVGID_164_);}
	.st173{fill:url(#SVGID_165_);}
	.st174{fill:url(#SVGID_166_);}
	.st175{fill:url(#SVGID_167_);}
	.st176{fill:url(#SVGID_168_);}
	.st177{fill:url(#SVGID_169_);}
	.st178{fill:url(#SVGID_170_);}
	.st179{fill:url(#SVGID_171_);}
	.st180{fill:url(#SVGID_172_);}
	.st181{fill:url(#SVGID_173_);}
	.st182{fill:url(#SVGID_174_);}
	.st183{fill:url(#SVGID_175_);}
	.st184{fill:url(#SVGID_176_);}
	.st185{fill:url(#SVGID_177_);}
	.st186{fill:url(#SVGID_178_);}
	.st187{fill:url(#SVGID_179_);}
	.st188{fill:url(#SVGID_180_);}
	.st189{fill:url(#SVGID_181_);}
</style>
<g>
	<g>
		<path class="st9" d="M39.008,82.126c-8.403,0-15.966-4.949-19.421-12.698c-1.214-2.708-1.774-5.509-1.774-8.403
			c0-11.671,9.524-21.195,21.195-21.195c1.214,0,2.521,0.093,3.828,0.373l0.467,0.093l0.187-0.467
			c0.373-0.84,0.747-1.774,1.307-2.801c0.187-0.373,0.373-0.747,0.654-1.12l0.187-0.28c0.84-1.401,1.681-2.614,2.614-3.735
			l0.093-0.187c0.187-0.187,0.373-0.467,0.56-0.654c2.801-3.081,6.069-5.415,9.897-7.096c3.641-1.587,7.469-2.428,11.204-2.428
			c9.897,0,18.86,5.042,24.089,13.538l0.187,0.28l0.373-0.093c1.307-0.28,2.521-0.373,3.828-0.373
			c12.978,0,23.529,10.551,23.529,23.529c0,12.978-10.551,23.529-23.529,23.529H39.008V82.126z"/>
		<path class="st10" d="M69.726,22.184c9.71,0,18.58,4.949,23.622,13.258l0.373,0.654l0.747-0.093
			c1.307-0.28,2.521-0.373,3.735-0.373c12.698,0,22.969,10.271,22.969,22.969s-10.364,22.969-22.969,22.969H39.008
			c-8.216,0-15.592-4.855-18.86-12.418c-1.12-2.614-1.774-5.415-1.774-8.216c0-11.391,9.244-20.634,20.634-20.634
			c1.214,0,2.428,0.093,3.641,0.373l0.934,0.187l0.373-0.84c0.373-0.84,0.747-1.774,1.214-2.708c0.187-0.373,0.373-0.654,0.56-1.12
			l0.187-0.28c0.84-1.307,1.681-2.614,2.614-3.735l0.093-0.187c0.187-0.187,0.373-0.467,0.56-0.654
			c2.708-2.988,5.976-5.322,9.71-7.003C62.35,23.024,66.084,22.184,69.726,22.184 M69.726,21.157c-3.828,0-7.656,0.84-11.391,2.428
			c-3.828,1.681-7.189,4.108-10.084,7.189c-0.187,0.187-0.373,0.467-0.56,0.654l-0.093,0.187c-0.934,1.12-1.867,2.428-2.708,3.828
			l-0.093,0.28c-0.187,0.373-0.467,0.747-0.654,1.12c-0.467,0.934-0.934,1.867-1.307,2.801c-1.307-0.28-2.614-0.373-3.921-0.373
			c-11.951,0-21.661,9.71-21.661,21.662c0,2.988,0.654,5.882,1.774,8.683c3.455,7.936,11.298,13.072,19.888,13.072H98.11
			c13.258,0,24.089-10.831,24.089-24.089c0-13.258-10.831-24.089-24.089-24.089c-1.214,0-2.521,0.093-3.921,0.373
			C89.053,26.292,79.81,21.157,69.726,21.157L69.726,21.157z"/>
	</g>
	<g>
		<g>
			
				<radialGradient id="SVGID_1_" cx="63.0849" cy="2960.8425" r="61.0062" gradientTransform="matrix(1 0 0 -1 0 3026.8655)" gradientUnits="userSpaceOnUse">
				<stop  offset="0" style="stop-color:#F4FAFF"/>
				<stop  offset="1" style="stop-color:#DDEFFA"/>
			</radialGradient>
			<path class="st0" d="M61.509,92.397c-6.442,0-12.231-3.828-14.846-9.71c-0.934-2.054-1.401-4.202-1.401-6.442
				c0-8.963,7.283-16.246,16.246-16.246c0.934,0,1.867,0.093,2.894,0.28l0.467,0.093l0.187-0.467c0.28-0.654,0.56-1.401,0.934-2.147
				c0.187-0.28,0.28-0.56,0.467-0.84l0.093-0.187c0.654-1.027,1.307-2.054,2.054-2.894l0.093-0.093
				c0.093-0.187,0.28-0.373,0.467-0.467c2.148-2.334,4.668-4.202,7.563-5.415c2.801-1.214,5.695-1.867,8.59-1.867
				c7.563,0,14.472,3.828,18.487,10.364l0.187,0.28l0.373-0.093c1.027-0.187,1.961-0.28,2.894-0.28c9.897,0,18.02,8.123,18.02,18.02
				c0,9.897-8.123,18.02-18.02,18.02h-45.75V92.397z"/>
		</g>
		<g>
			<path class="st12" d="M85.225,46.553c7.376,0,14.192,3.735,18.02,10.084l0.373,0.654l0.747-0.093
				c1.027-0.187,1.867-0.28,2.801-0.28c9.617,0,17.46,7.843,17.46,17.46c0,9.617-7.843,17.46-17.46,17.46H61.51
				c-6.256,0-11.858-3.735-14.379-9.43c-0.84-1.961-1.307-4.108-1.307-6.256c0-8.683,7.003-15.686,15.686-15.686
				c0.934,0,1.867,0.093,2.801,0.28l0.934,0.187l0.373-0.84c0.28-0.654,0.56-1.401,0.934-2.054c0.093-0.28,0.28-0.467,0.467-0.84
				l0.093-0.187c0.654-1.027,1.307-1.961,1.961-2.801l0.093-0.093c0.093-0.187,0.28-0.28,0.373-0.467
				c2.054-2.334,4.575-4.108,7.376-5.322C79.623,47.113,82.424,46.553,85.225,46.553 M85.225,45.432
				c-2.988,0-5.882,0.654-8.777,1.867c-2.988,1.307-5.602,3.175-7.75,5.602c-0.187,0.187-0.28,0.373-0.467,0.56l-0.093,0.093
				c-0.747,0.84-1.401,1.867-2.054,2.988l-0.093,0.187c-0.187,0.28-0.373,0.56-0.467,0.84c-0.373,0.747-0.747,1.494-1.027,2.147
				c-1.027-0.187-2.054-0.28-2.988-0.28c-9.244,0-16.713,7.563-16.713,16.713c0,2.334,0.467,4.575,1.401,6.723
				c2.708,6.162,8.683,10.084,15.312,10.084h45.657c10.271,0,18.58-8.31,18.58-18.58s-8.31-18.58-18.58-18.58
				c-0.934,0-1.961,0.093-2.988,0.28C100.164,49.447,93.068,45.432,85.225,45.432L85.225,45.432z"/>
		</g>
	</g>
</g>
</svg>
