<?xml version="1.0" encoding="utf-8"?>
<!-- Generator: Adobe Illustrator 23.0.1, SVG Export Plug-In . SVG Version: 6.00 Build 0)  -->
<svg version="1.1" id="Ebene_2" xmlns="http://www.w3.org/2000/svg" xmlns:xlink="http://www.w3.org/1999/xlink" x="0px" y="0px"
	 viewBox="0 0 143 122" style="enable-background:new 0 0 143 122;" xml:space="preserve">
<style type="text/css">
	.st0{fill:url(#SVGID_1_);}
	.st1{fill:#DADCDE;}
	.st2{fill:url(#SVGID_2_);}
	.st3{fill:#59B9E8;}
	.st4{fill:url(#SVGID_3_);}
	.st5{fill:#F7B82C;}
	.st6{fill:#F7B82D;}
	.st7{fill:#F5AE23;}
	.st8{fill:url(#SVGID_4_);}
	.st9{fill:url(#SVGID_5_);}
	.st10{fill:url(#SVGID_6_);}
	.st11{fill:url(#SVGID_7_);}
	.st12{fill:url(#SVGID_8_);}
	.st13{fill:url(#SVGID_9_);}
	.st14{fill:url(#SVGID_10_);}
	.st15{fill:url(#SVGID_11_);}
	.st16{fill:url(#SVGID_12_);}
	.st17{fill:url(#SVGID_13_);}
	.st18{fill:url(#SVGID_14_);}
	.st19{fill:url(#SVGID_15_);}
	.st20{fill:url(#SVGID_16_);}
	.st21{fill:url(#SVGID_17_);}
	.st22{fill:url(#SVGID_18_);}
	.st23{fill:url(#SVGID_19_);}
	.st24{fill:url(#SVGID_20_);}
	.st25{fill:url(#SVGID_21_);}
	.st26{fill:url(#SVGID_22_);}
	.st27{fill:url(#SVGID_23_);}
	.st28{fill:url(#SVGID_24_);}
	.st29{fill:url(#SVGID_25_);}
	.st30{fill:#BEE2F1;}
	.st31{fill:url(#SVGID_26_);}
	.st32{fill:url(#SVGID_27_);}
	.st33{fill:url(#SVGID_28_);}
	.st34{fill:url(#SVGID_29_);}
	.st35{fill:#CBD9E7;}
	.st36{fill:#C3CFDA;}
	.st37{fill:url(#SVGID_30_);}
	.st38{fill:url(#SVGID_31_);}
	.st39{fill:url(#SVGID_32_);}
	.st40{fill:url(#SVGID_33_);}
	.st41{fill:url(#SVGID_34_);}
	.st42{fill:url(#SVGID_35_);}
	.st43{fill:url(#SVGID_36_);}
	.st44{fill:url(#SVGID_37_);}
	.st45{fill:url(#SVGID_38_);}
	.st46{fill:url(#SVGID_39_);}
	.st47{fill:url(#SVGID_40_);}
	.st48{fill:url(#SVGID_41_);}
	.st49{fill:url(#SVGID_42_);}
	.st50{fill:url(#SVGID_43_);}
	.st51{fill:url(#SVGID_44_);}
	.st52{fill:url(#SVGID_45_);}
	.st53{fill:url(#SVGID_46_);}
	.st54{fill:url(#SVGID_47_);}
	.st55{fill:url(#SVGID_48_);}
	.st56{fill:url(#SVGID_49_);}
	.st57{fill:url(#SVGID_50_);}
	.st58{fill:url(#SVGID_51_);}
	.st59{fill:url(#SVGID_52_);}
	.st60{fill:url(#SVGID_53_);}
	.st61{fill:url(#SVGID_54_);}
	.st62{fill:url(#SVGID_55_);}
	.st63{fill:url(#SVGID_56_);}
	.st64{fill:url(#SVGID_57_);}
	.st65{fill:url(#SVGID_58_);}
	.st66{fill:url(#SVGID_59_);}
	.st67{fill:url(#SVGID_60_);}
	.st68{fill:url(#SVGID_61_);}
	.st69{fill:url(#SVGID_62_);}
	.st70{fill:url(#SVGID_63_);}
	.st71{fill:url(#SVGID_64_);}
	.st72{fill:url(#SVGID_65_);}
	.st73{fill:url(#SVGID_66_);}
	.st74{fill:url(#SVGID_67_);}
	.st75{fill:url(#SVGID_68_);}
	.st76{fill:url(#SVGID_69_);}
	.st77{fill:url(#SVGID_70_);}
	.st78{fill:#FFFFFF;}
	.st79{fill:url(#SVGID_71_);}
	.st80{fill:url(#SVGID_72_);}
	.st81{fill:url(#SVGID_73_);}
	.st82{fill:url(#SVGID_74_);}
	.st83{fill:url(#SVGID_75_);}
	.st84{fill:url(#SVGID_76_);}
	.st85{fill:url(#SVGID_77_);}
	.st86{fill:url(#SVGID_78_);}
	.st87{fill:url(#SVGID_79_);}
	.st88{fill:url(#SVGID_80_);}
	.st89{fill:url(#SVGID_81_);}
	.st90{fill:url(#SVGID_82_);}
	.st91{fill:url(#SVGID_83_);}
	.st92{fill:url(#SVGID_84_);}
	.st93{fill:url(#SVGID_85_);}
	.st94{fill:url(#SVGID_86_);}
	.st95{fill:url(#SVGID_87_);}
	.st96{fill:url(#SVGID_88_);}
	.st97{fill:url(#SVGID_89_);}
	.st98{fill:url(#SVGID_90_);}
	.st99{fill:url(#SVGID_91_);}
	.st100{fill:url(#SVGID_92_);}
	.st101{fill:url(#SVGID_93_);}
	.st102{fill:url(#SVGID_94_);}
	.st103{fill:url(#SVGID_95_);}
	.st104{fill:url(#SVGID_96_);}
	.st105{fill:url(#SVGID_97_);}
	.st106{fill:url(#SVGID_98_);}
	.st107{fill:url(#SVGID_99_);}
	.st108{fill:url(#SVGID_100_);}
	.st109{fill:url(#SVGID_101_);}
	.st110{fill:url(#SVGID_102_);}
	.st111{fill:url(#SVGID_103_);}
	.st112{fill:url(#SVGID_104_);}
	.st113{fill:url(#SVGID_105_);}
	.st114{fill:url(#SVGID_106_);}
	.st115{fill:url(#SVGID_107_);}
	.st116{fill:url(#SVGID_108_);}
	.st117{fill:url(#SVGID_109_);}
	.st118{fill:url(#SVGID_110_);}
	.st119{fill:url(#SVGID_111_);}
	.st120{fill:url(#SVGID_112_);}
	.st121{fill:url(#SVGID_113_);}
	.st122{fill:url(#SVGID_114_);}
	.st123{fill:url(#SVGID_115_);}
	.st124{fill:url(#SVGID_116_);}
	.st125{fill:url(#SVGID_117_);}
	.st126{fill:url(#SVGID_118_);}
	.st127{fill:url(#SVGID_119_);}
	.st128{fill:url(#SVGID_120_);}
	.st129{fill:url(#SVGID_121_);}
	.st130{fill:url(#SVGID_122_);}
	.st131{fill:url(#SVGID_123_);}
	.st132{fill:url(#SVGID_124_);}
	.st133{fill:url(#SVGID_125_);}
	.st134{fill:url(#SVGID_126_);}
	.st135{fill:url(#SVGID_127_);}
	.st136{fill:url(#SVGID_128_);}
	.st137{fill:url(#SVGID_129_);}
	.st138{fill:url(#SVGID_130_);}
	.st139{fill:url(#SVGID_131_);}
	.st140{fill:url(#SVGID_132_);}
	.st141{fill:url(#SVGID_133_);}
	.st142{fill:url(#SVGID_134_);}
	.st143{fill:url(#SVGID_135_);}
	.st144{fill:url(#SVGID_136_);}
	.st145{fill:url(#SVGID_137_);}
	.st146{fill:url(#SVGID_138_);}
	.st147{fill:url(#SVGID_139_);}
	.st148{fill:url(#SVGID_140_);}
	.st149{fill:url(#SVGID_141_);}
	.st150{fill:url(#SVGID_142_);}
	.st151{fill:url(#SVGID_143_);}
	.st152{fill:url(#SVGID_144_);}
	.st153{fill:url(#SVGID_145_);}
	.st154{fill:url(#SVGID_146_);}
	.st155{fill:url(#SVGID_147_);}
	.st156{fill:url(#SVGID_148_);}
	.st157{fill:url(#SVGID_149_);}
	.st158{fill:url(#SVGID_150_);}
	.st159{fill:url(#SVGID_151_);}
	.st160{fill:url(#SVGID_152_);}
	.st161{fill:url(#SVGID_153_);}
	.st162{fill:url(#SVGID_154_);}
	.st163{fill:url(#SVGID_155_);}
	.st164{fill:url(#SVGID_156_);}
	.st165{fill:url(#SVGID_157_);}
	.st166{fill:url(#SVGID_158_);}
	.st167{fill:url(#SVGID_159_);}
	.st168{fill:url(#SVGID_160_);}
	.st169{fill:url(#SVGID_161_);}
	.st170{fill:url(#SVGID_162_);}
	.st171{fill:url(#SVGID_163_);}
	.st172{fill:url(#SVGID_164_);}
	.st173{fill:url(#SVGID_165_);}
	.st174{fill:url(#SVGID_166_);}
	.st175{fill:url(#SVGID_167_);}
	.st176{fill:url(#SVGID_168_);}
	.st177{fill:url(#SVGID_169_);}
	.st178{fill:url(#SVGID_170_);}
	.st179{fill:url(#SVGID_171_);}
	.st180{fill:url(#SVGID_172_);}
	.st181{fill:url(#SVGID_173_);}
	.st182{fill:url(#SVGID_174_);}
	.st183{fill:url(#SVGID_175_);}
	.st184{fill:url(#SVGID_176_);}
	.st185{fill:url(#SVGID_177_);}
	.st186{fill:url(#SVGID_178_);}
	.st187{fill:url(#SVGID_179_);}
	.st188{fill:url(#SVGID_180_);}
	.st189{fill:url(#SVGID_181_);}
</style>
<g>
	<g>
		<g>
			
				<radialGradient id="SVGID_1_" cx="42.1201" cy="2973.3933" r="74.1735" gradientTransform="matrix(1 0 0 -1 0 3026.8655)" gradientUnits="userSpaceOnUse">
				<stop  offset="0" style="stop-color:#FBFBFB"/>
				<stop  offset="1" style="stop-color:#E7E7E7"/>
			</radialGradient>
			<path class="st0" d="M40.782,86.218c-8.403,0-15.966-4.949-19.327-12.698c-1.214-2.708-1.774-5.509-1.774-8.403
				c0-11.671,9.524-21.195,21.101-21.195c1.214,0,2.521,0.093,3.735,0.373l0.467,0.093l0.187-0.467
				c0.373-0.84,0.747-1.774,1.307-2.801c0.187-0.373,0.373-0.747,0.654-1.12l0.187-0.28c0.84-1.401,1.681-2.614,2.614-3.735
				l0.093-0.187c0.187-0.187,0.373-0.467,0.56-0.654c2.801-3.081,6.069-5.415,9.804-7.096c3.641-1.587,7.376-2.428,11.204-2.428
				c9.897,0,18.86,5.042,24.089,13.538l0.187,0.28l0.373-0.093c1.307-0.28,2.521-0.373,3.828-0.373
				c12.978,0,23.529,10.551,23.529,23.529c0,12.978-10.551,23.529-23.529,23.529H40.782V86.218z"/>
			<path class="st1" d="M71.5,26.369c9.71,0,18.487,4.949,23.622,13.258l0.373,0.654l0.747-0.093
				c1.307-0.28,2.521-0.373,3.641-0.373c12.698,0,22.969,10.271,22.969,22.969s-10.271,22.969-22.969,22.969H40.688
				c-8.216,0-15.593-4.855-18.86-12.418c-1.12-2.614-1.774-5.415-1.774-8.216c0-11.391,9.244-20.634,20.634-20.634
				c1.214,0,2.428,0.093,3.641,0.373l0.934,0.187l0.373-0.84c0.373-0.84,0.747-1.774,1.214-2.708
				c0.187-0.373,0.373-0.654,0.56-1.027l0.187-0.28c0.84-1.307,1.681-2.614,2.614-3.735l0.093-0.187
				c0.187-0.187,0.373-0.467,0.56-0.654c2.708-2.988,5.976-5.322,9.71-7.003C64.124,27.116,67.859,26.369,71.5,26.369 M71.5,25.248
				c-3.828,0-7.656,0.84-11.391,2.428c-3.828,1.681-7.189,4.108-10.084,7.189c-0.187,0.187-0.373,0.467-0.56,0.654l-0.093,0.187
				c-0.934,1.12-1.867,2.428-2.708,3.828l-0.093,0.28c-0.187,0.373-0.467,0.747-0.654,1.12c-0.467,0.934-0.934,1.867-1.307,2.801
				c-1.307-0.28-2.614-0.373-3.921-0.373c-11.951,0-21.662,9.71-21.662,21.662c0,2.988,0.654,5.882,1.774,8.683
				c3.455,7.936,11.298,13.072,19.887,13.072h59.196c13.258,0,24.089-10.831,24.089-24.089c0-13.258-10.831-24.089-24.089-24.089
				c-1.214,0-2.521,0.093-3.921,0.373C90.827,30.477,81.584,25.248,71.5,25.248L71.5,25.248z"/>
		</g>
	</g>
	<g>
		
			<radialGradient id="SVGID_2_" cx="-194.7323" cy="3392.3689" r="5.4347" gradientTransform="matrix(0.9704 0.2417 0.2417 -0.9704 -560.1143 3438.5117)" gradientUnits="userSpaceOnUse">
			<stop  offset="0" style="stop-color:#71C6E4"/>
			<stop  offset="1" style="stop-color:#56C0EE"/>
		</radialGradient>
		<path class="st2" d="M70.473,105.639c-0.373,0-0.747,0-1.12-0.093c-2.428-0.56-3.921-3.081-3.361-5.509
			c0.28-1.214,2.147-3.455,5.229-6.162c0.28-0.28,0.654-0.28,0.84-0.28c0.56,0,1.027,0.28,1.12,0.84
			c1.401,3.828,1.961,6.723,1.681,7.936C74.394,104.238,72.62,105.639,70.473,105.639L70.473,105.639z"/>
		<path class="st3" d="M72.06,94.061c0.187,0,0.56,0.093,0.654,0.467c1.307,3.641,1.961,6.536,1.681,7.563
			c-0.467,1.774-2.054,3.081-3.921,3.081c-0.28,0-0.654,0-0.934-0.093c-1.027-0.28-1.961-0.934-2.428-1.867
			c-0.56-0.934-0.747-1.961-0.467-3.081c0.28-1.12,2.147-3.268,5.042-5.976C71.78,94.061,71.967,94.061,72.06,94.061 M72.06,92.941
			c-0.373,0-0.84,0.187-1.214,0.467c-1.961,1.867-4.949,4.762-5.322,6.442c-0.654,2.708,1.027,5.509,3.735,6.162
			c0.373,0.093,0.84,0.187,1.214,0.187c2.241,0,4.388-1.587,4.949-3.828c0.467-1.774-0.747-5.695-1.681-8.216
			C73.461,93.407,72.807,92.941,72.06,92.941L72.06,92.941z"/>
	</g>
	<g>
		
			<radialGradient id="SVGID_3_" cx="-205.1869" cy="3374.9104" r="6.281" gradientTransform="matrix(0.9704 0.2417 0.2417 -0.9704 -560.1143 3438.5117)" gradientUnits="userSpaceOnUse">
			<stop  offset="0" style="stop-color:#71C6E4"/>
			<stop  offset="1" style="stop-color:#56C0EE"/>
		</radialGradient>
		<path class="st4" d="M56.094,121.045c-0.467,0-0.84-0.093-1.307-0.187c-2.801-0.747-4.575-3.548-3.828-6.442
			c0.373-1.401,2.428-3.921,5.976-7.096c0.373-0.28,0.747-0.373,1.027-0.373c0.654,0,1.214,0.373,1.401,1.027
			c1.587,4.482,2.241,7.656,1.867,9.057C60.576,119.364,58.522,121.045,56.094,121.045L56.094,121.045z"/>
		<path class="st3" d="M57.868,107.506c0.28,0,0.747,0.187,0.934,0.654c1.494,4.202,2.241,7.469,1.867,8.777
			c-0.56,2.147-2.428,3.548-4.575,3.548c-0.373,0-0.747-0.093-1.12-0.187c-1.214-0.28-2.241-1.027-2.894-2.147
			c-0.654-1.12-0.84-2.334-0.56-3.548c0.187-0.654,1.027-2.521,5.789-6.816C57.495,107.506,57.775,107.506,57.868,107.506
			 M57.868,106.386c-0.467,0-0.934,0.187-1.401,0.56c-2.241,2.054-5.602,5.415-6.069,7.376c-0.747,3.081,1.12,6.256,4.202,7.096
			c0.467,0.093,0.934,0.187,1.401,0.187c2.614,0,4.949-1.774,5.602-4.388c0.467-2.054-0.84-6.442-1.961-9.43
			C59.455,106.946,58.709,106.386,57.868,106.386L57.868,106.386z"/>
	</g>
	<g>
		
			<radialGradient id="SVGID_4_" cx="-180.7268" cy="3381.0029" r="6.2811" gradientTransform="matrix(0.9704 0.2417 0.2417 -0.9704 -560.1143 3438.5117)" gradientUnits="userSpaceOnUse">
			<stop  offset="0" style="stop-color:#71C6E4"/>
			<stop  offset="1" style="stop-color:#56C0EE"/>
		</radialGradient>
		<path class="st8" d="M81.304,121.045c-0.467,0-0.84-0.093-1.307-0.187c-2.801-0.747-4.575-3.548-3.828-6.442
			c0.373-1.401,2.428-3.921,5.976-7.096c0.373-0.28,0.747-0.373,1.027-0.373c0.654,0,1.214,0.373,1.401,1.027
			c1.587,4.482,2.241,7.656,1.867,9.057C85.785,119.364,83.731,121.045,81.304,121.045L81.304,121.045z"/>
		<path class="st3" d="M83.078,107.506c0.28,0,0.747,0.187,0.934,0.654c1.494,4.202,2.241,7.469,1.867,8.777
			c-0.56,2.147-2.428,3.548-4.575,3.548c-0.373,0-0.747-0.093-1.12-0.187c-1.214-0.28-2.241-1.027-2.894-2.147
			c-0.654-1.12-0.84-2.334-0.56-3.548c0.187-0.654,1.027-2.521,5.789-6.816C82.704,107.506,82.891,107.506,83.078,107.506
			 M83.078,106.386c-0.467,0-0.934,0.187-1.401,0.56c-2.241,2.054-5.602,5.415-6.069,7.376c-0.747,3.081,1.12,6.256,4.202,7.096
			c0.467,0.093,0.934,0.187,1.401,0.187c2.614,0,4.949-1.774,5.602-4.388c0.467-2.054-0.84-6.442-1.961-9.43
			C84.665,106.946,83.918,106.386,83.078,106.386L83.078,106.386z"/>
	</g>
</g>
</svg>
