<?xml version="1.0" encoding="iso-8859-1"?>
<!-- Generator: Adobe Illustrator 19.0.0, SVG Export Plug-In . SVG Version: 6.00 Build 0)  -->
<svg version="1.1" id="Capa_1" xmlns="http://www.w3.org/2000/svg" xmlns:xlink="http://www.w3.org/1999/xlink" x="0px" y="0px"
	 viewBox="0 0 511.46 511.46" style="enable-background:new 0 0 511.46 511.46;" xml:space="preserve">
<path style="fill:#2196F3;" d="M344.562,112.228c-27.289-33.28-52.356-68.321-75.04-104.896c-5.142-7.617-15.485-9.624-23.102-4.482
	c-1.768,1.193-3.289,2.715-4.482,4.482c-22.684,36.575-47.751,71.616-75.04,104.896C113.842,179.908,63.73,243.844,63.73,319.46
	c0,106.039,85.961,192,192,192s192-85.961,192-192C447.73,243.844,397.618,179.908,344.562,112.228z"/>
<path d="M255.73,511.46c-105.995-0.106-191.894-86.005-192-192c0-75.616,50.112-139.552,103.168-207.232
	c27.289-33.28,52.356-68.321,75.04-104.896c5.142-7.617,15.485-9.624,23.102-4.482c1.768,1.193,3.289,2.715,4.482,4.482
	c22.684,36.575,47.751,71.616,75.04,104.896c53.056,67.68,103.168,131.616,103.168,207.232
	C447.624,425.455,361.725,511.354,255.73,511.46z M255.73,45.732c-19.808,30.336-42.016,58.656-63.648,86.4
	c-49.568,63.04-96.352,122.72-96.352,187.328c0,88.366,71.634,160,160,160s160-71.634,160-160
	c0-64.608-46.784-124.288-96.352-187.456C297.746,104.388,275.538,76.068,255.73,45.732z"/>
<path d="M207.73,287.46c-26.51,0-48-21.49-48-48s21.49-48,48-48s48,21.49,48,48S234.24,287.46,207.73,287.46z M207.73,223.46
	c-8.837,0-16,7.163-16,16s7.163,16,16,16s16-7.163,16-16S216.567,223.46,207.73,223.46z"/>
<path d="M303.73,447.46c-26.51,0-48-21.49-48-48s21.49-48,48-48s48,21.49,48,48S330.24,447.46,303.73,447.46z M303.73,383.46
	c-8.837,0-16,7.163-16,16s7.163,16,16,16s16-7.163,16-16S312.567,383.46,303.73,383.46z"/>
<path d="M175.73,415.46c-8.837,0.016-16.013-7.135-16.029-15.971c-0.008-4.26,1.684-8.348,4.701-11.357l160-160
	c6.256-6.256,16.4-6.256,22.656,0s6.256,16.4,0,22.656l-160,160C184.052,413.787,179.976,415.468,175.73,415.46z"/>
<g>
</g>
<g>
</g>
<g>
</g>
<g>
</g>
<g>
</g>
<g>
</g>
<g>
</g>
<g>
</g>
<g>
</g>
<g>
</g>
<g>
</g>
<g>
</g>
<g>
</g>
<g>
</g>
<g>
</g>
</svg>
